<?xml version="1.0" encoding="UTF-8" standalone="no"?>
<svg
   viewBox="0 0 84.426399 72.730964"
   version="1.1"
   id="svg23"
   sodipodi:docname="appicon-reaction.svg"
   inkscape:version="1.2 (dc2aedaf03, 2022-05-15)"
   width="84.426399"
   height="72.730965"
   xmlns:inkscape="http://www.inkscape.org/namespaces/inkscape"
   xmlns:sodipodi="http://sodipodi.sourceforge.net/DTD/sodipodi-0.dtd"
   xmlns="http://www.w3.org/2000/svg"
   xmlns:svg="http://www.w3.org/2000/svg">
  <defs
     id="defs27" />
  <sodipodi:namedview
     id="namedview25"
     pagecolor="#ffffff"
     bordercolor="#111111"
     borderopacity="1"
     inkscape:showpageshadow="0"
     inkscape:pageopacity="0"
     inkscape:pagecheckerboard="1"
     inkscape:deskcolor="#d1d1d1"
     showgrid="false"
     inkscape:zoom="8.2083333"
     inkscape:cx="14.741117"
     inkscape:cy="26.862944"
     inkscape:window-width="1920"
     inkscape:window-height="986"
     inkscape:window-x="-11"
     inkscape:window-y="-11"
     inkscape:window-maximized="1"
     inkscape:current-layer="svg23" />
  <path
     id="path19"
     d="m 50.710204,13.058654 a 0.632,0.632 0 0 0 -0.796875,0.367187 l -4.55664,11.833984 a 46.725,46.725 0 0 0 -4.236328,-0.195312 c -1.410999,0 -2.784002,0.0695 -4.125,0.1875 L 33.106689,13.480528 a 0.63,0.63 0 0 0 -1.154297,-0.101562 l -8.671875,16.029297 c -4.485996,2.862997 -7.240235,7.129209 -7.240235,12.783203 0,11.371989 11.120092,17.121094 25.080079,17.121094 13.951986,0 25.080078,-5.749105 25.080078,-17.121094 0,-5.583994 -2.688645,-9.794253 -7.056641,-12.65625 L 51.065673,13.371154 a 0.632,0.632 0 0 0 -0.355469,-0.3125 z"
     inkscape:label="path19"
     style="display:inline;fill:#881ca8" />
</svg>
